<svg width="167" height="54" viewBox="0 0 167 54" fill="none" xmlns="http://www.w3.org/2000/svg">
<path d="M2.36591 8L107.187 9.20531L106.821 41.0275L2 39.8222L2.36591 8Z" fill="#FBD40D"/>
<g opacity="0.8" filter="url(#filter0_i_20_35)">
<path d="M57.7653 16.722C58.0405 17.0772 58.1752 17.5407 58.1696 18.1127C58.1617 18.9047 57.8624 19.51 57.2715 19.9286C56.6808 20.3326 55.9235 20.5294 54.9996 20.5189C54.4716 20.5129 53.8049 20.4467 52.9995 20.3202C51.418 20.0529 50.3853 19.9165 49.9014 19.911C49.4174 19.9055 49.0799 19.9163 48.889 19.9435C48.6982 19.956 48.4487 19.9752 48.1404 20.001L50.9901 5.51243L60.4715 5.62002C60.4626 6.51465 60.2359 7.19412 59.7913 7.65843C59.3613 8.12292 58.721 8.35033 57.8704 8.34068C57.0198 8.33103 56.1638 8.1233 55.3025 7.7175L54.5824 11.5596L58.4981 11.604C58.4904 12.3813 58.2937 12.9878 57.908 13.4234C57.5225 13.8444 57.0071 14.0512 56.3618 14.0439C55.7312 14.0368 55.2186 13.9576 54.8241 13.8065C54.4296 13.6553 54.2105 13.5575 54.167 13.513L53.3338 17.6618C53.6854 17.7098 54.1911 17.7375 54.8511 17.745C55.9803 17.7578 56.9518 17.4168 57.7653 16.722ZM60.0215 20.1358L62.8052 5.6465L67.5349 5.70018L70.8677 15.7266L72.7926 5.75984L75.2342 5.80954L72.4067 20.2764L67.369 20.2192L64.2965 10.5697L62.4414 20.1633L60.0215 20.1358ZM72.8413 23.3175C73.5902 23.238 74.204 22.7169 74.6829 21.7543C75.1766 20.7772 75.6547 19.1618 76.117 16.9083L78.361 5.82302L83.1347 5.87719L80.8907 16.9624C80.3196 19.8308 79.5811 21.8246 78.6753 22.9437C78.2002 23.525 77.6608 23.9296 77.0572 24.1574C76.4683 24.3854 75.8511 24.4957 75.2058 24.4884C74.5606 24.4811 74.0338 24.3578 73.6254 24.1185C73.2025 23.879 72.9411 23.612 72.8413 23.3175ZM83.8677 15.0381C83.8952 12.2662 84.6362 10.0158 86.0907 8.28689C87.6347 6.41229 89.734 5.49005 92.3885 5.52017C94.3097 5.54197 95.7496 6.02768 96.7082 6.97728C97.667 7.91222 98.1367 9.36231 98.1172 11.3275C98.0875 14.3194 97.3014 16.6793 95.7589 18.4072C94.2313 20.106 92.199 20.941 89.6618 20.9122C87.6819 20.8897 86.2129 20.3817 85.2547 19.3881C84.3113 18.38 83.849 16.93 83.8677 15.0381ZM89.6985 10.55C89.0124 13.1824 88.659 15.5398 88.6383 17.6224C88.6334 18.121 88.71 18.5326 88.8681 18.8571C89.0409 19.1817 89.3473 19.3465 89.7873 19.3515C90.2419 19.3567 90.6096 19.2582 90.8902 19.056C91.1711 18.8392 91.4239 18.4901 91.6487 18.0086C92.0085 17.2206 92.358 15.9925 92.6972 14.3242C93.0513 12.6415 93.2463 11.4556 93.2825 10.7667C93.3188 10.063 93.3396 9.44721 93.3448 8.91924C93.3501 8.39127 93.2737 7.95771 93.1157 7.61856C92.9577 7.27941 92.6587 7.10734 92.2188 7.10235C91.7935 7.09752 91.4329 7.22544 91.1369 7.4861C90.5893 7.97858 90.1099 8.99987 89.6985 10.55ZM102.038 14.1442C101.653 10.1649 100.716 7.74147 99.2284 6.87387C99.5401 6.49605 99.9464 6.20731 100.447 6.00764C100.948 5.79331 101.499 5.68956 102.1 5.69638C102.701 5.7032 103.228 5.81919 103.681 6.04434C104.133 6.25482 104.504 6.58905 104.793 7.04702C105.342 7.91864 105.606 9.38839 105.585 11.4563L105.57 13.0402C106.475 10.469 107.373 8.63107 108.264 7.52644C109.17 6.39265 110.181 5.83208 111.295 5.84472C111.735 5.84972 112.101 5.97121 112.392 6.20919C112.683 6.43251 112.9 6.71366 113.043 7.05264C111.909 7.53847 110.792 8.49385 109.693 9.9188C108.593 11.3437 107.682 13.0568 106.958 15.0581L105.604 20.6531L100.698 20.5974L102.038 14.1442Z" fill="#06312C"/>
</g>
<g opacity="0.8" filter="url(#filter1_i_20_35)">
<path d="M0.670764 39.3201C0.676197 36.8001 1.33396 34.7484 2.64404 33.165C4.03441 31.4484 5.93626 30.5931 8.34959 30.5991C10.0962 30.6034 11.4087 31.0333 12.2868 31.8888C13.165 32.7309 13.6022 34.0454 13.5983 35.832C13.5925 38.552 12.8945 40.7036 11.5044 42.2869C10.1277 43.8435 8.28602 44.6189 5.97936 44.6132C4.17937 44.6088 2.84034 44.1588 1.96226 43.2633C1.09756 42.3545 0.667055 41.0401 0.670764 39.3201ZM5.93967 35.1931C5.3345 37.5916 5.02987 39.7376 5.02579 41.6309C5.02481 42.0842 5.09734 42.4577 5.24338 42.7514C5.40274 43.0452 5.68243 43.1925 6.08242 43.1935C6.49576 43.1945 6.82929 43.102 7.08303 42.916C7.33679 42.7166 7.56415 42.3972 7.76509 41.9576C8.08665 41.2384 8.39573 40.1192 8.69234 38.5999C9.00231 37.0674 9.1713 35.9878 9.19932 35.3612C9.22737 34.7212 9.24191 34.1613 9.24294 33.6813C9.24398 33.2013 9.17149 32.8078 9.02549 32.5007C8.87948 32.1937 8.60648 32.0397 8.20648 32.0387C7.81982 32.0378 7.49289 32.1569 7.22571 32.3963C6.7314 32.8484 6.30272 33.7807 5.93967 35.1931ZM14.3794 44.234L16.8477 31.1C18.1681 30.9566 19.7882 30.8873 21.7082 30.892C23.6415 30.8968 25.0543 31.1803 25.9464 31.7425C26.8385 32.3047 27.2833 33.1525 27.2809 34.2858C27.2785 35.4058 26.9832 36.3184 26.395 37.0236C25.8201 37.7289 25.0325 38.1936 24.032 38.4178C24.2563 39.525 24.6274 40.5259 25.1455 41.4205C25.6237 42.2617 26.1425 42.8163 26.7019 43.0844C26.5007 43.6439 26.1932 44.0431 25.7793 44.2821C25.3788 44.5345 24.8852 44.6599 24.2985 44.6585C23.7252 44.6571 23.2122 44.4891 22.7596 44.1547C22.307 43.8069 21.9014 43.3192 21.5428 42.6917C20.7857 41.3298 20.3695 39.5754 20.2941 37.4286L20.4341 37.4289C21.4208 37.4047 22.1614 37.1398 22.6558 36.6344C23.1503 36.1156 23.3987 35.3162 23.401 34.2362C23.4039 32.8896 22.8387 32.1882 21.7055 32.132L21.2655 32.1309C21.1455 32.1306 21.0522 32.1371 20.9855 32.1503L18.6594 44.2445L14.3794 44.234ZM40.3273 37.498C39.3627 39.6023 38.8778 41.8744 38.8726 44.3144C38.512 44.5669 38.0651 44.6925 37.5318 44.6911C37.0118 44.6899 36.5854 44.5621 36.2526 44.308C35.9198 44.0672 35.7203 43.82 35.6542 43.5665C35.3201 43.9123 34.8795 44.1846 34.3324 44.3832C33.7987 44.5819 33.2451 44.6806 32.6718 44.6791C32.0985 44.6777 31.5587 44.5831 31.0524 44.3951C30.5595 44.2073 30.1201 43.9062 29.7343 43.4919C28.883 42.5831 28.4591 41.2687 28.4628 39.5487C28.4686 36.8821 29.1865 34.7505 30.6166 33.154C32.0869 31.5043 34.122 30.6827 36.722 30.6891C38.5219 30.6935 39.7409 31.1632 40.3789 32.0981C40.5783 32.392 40.6776 32.7189 40.6768 33.0789C40.6761 33.4255 40.5954 33.752 40.4347 34.0583C40.2874 34.3512 40.0935 34.6174 39.853 34.8568C39.2785 35.3888 38.6379 35.6538 37.9313 35.6521C37.6513 35.6514 37.378 35.6041 37.1116 35.5101C37.1658 35.1102 37.1934 34.6769 37.1944 34.2103C37.1954 33.7436 37.1761 33.4036 37.1366 33.1901C37.1104 32.9767 37.0574 32.7833 36.9778 32.6097C36.8053 32.2493 36.5256 32.0686 36.139 32.0677C35.7656 32.0667 35.3652 32.2724 34.9376 32.6847C34.5235 33.0837 34.149 33.6161 33.8142 34.2819C33.0777 35.7734 32.7074 37.4192 32.7036 39.2192C32.7018 40.0459 32.8602 40.7529 33.179 41.3404C33.5243 41.9812 34.0036 42.3024 34.6169 42.3039C34.8302 42.3045 35.0304 42.2516 35.2173 42.1454C35.4175 42.0392 35.5577 41.9463 35.6379 41.8664L36.2865 37.848L40.3273 37.498ZM50.0767 44.7221C48.3701 44.7179 47.4394 43.5023 47.2846 41.0752L43.8446 41.0667C43.5766 41.6794 43.3487 42.2522 43.1609 42.785L42.6376 44.3037L39.8376 44.2968L46.1661 31.1124L50.4661 31.123L51.2851 40.8451C51.4154 42.2454 51.7468 43.1529 52.2792 43.5675C51.8909 44.3399 51.1567 44.7248 50.0767 44.7221ZM44.4677 39.6082L47.2277 39.6151L46.9988 34.4745L47 33.9345L45.5732 37.071L44.4677 39.6082ZM53.306 44.3301L55.7345 31.136L60.0345 31.1466L63.1349 40.2343L64.8144 31.1584L67.0344 31.1839L64.566 44.3579L59.986 44.3466L57.1249 35.5995L55.506 44.3355L53.306 44.3301ZM67.2885 44.3646L69.8569 31.1709L74.2569 31.1817L71.6485 44.3753L67.2885 44.3646ZM85.1253 40.2686C85.4714 40.5228 85.6439 40.9232 85.6427 41.4699C85.6416 42.0032 85.5206 42.4629 85.2798 42.849C85.0523 43.2218 84.7116 43.5543 84.2576 43.8465C83.2829 44.4707 81.9422 44.7808 80.2356 44.7765C78.5423 44.7724 77.2299 44.3291 76.2984 43.4468C75.3804 42.5512 74.923 41.3168 74.9264 39.7434C74.9312 37.5168 75.5155 35.5582 76.6791 33.8677C77.5618 32.6166 78.7904 31.7263 80.3649 31.1968C81.1788 30.9322 81.9857 30.8008 82.7857 30.8028C83.5857 30.8048 84.2323 30.8597 84.7254 30.9676C85.2185 31.0755 85.6515 31.2365 86.0243 31.4508C86.8367 31.9195 87.242 32.5271 87.2404 33.2738C87.2389 33.9538 86.9177 34.5463 86.2766 35.0514C85.6889 35.5033 85.1551 35.7287 84.6751 35.7275C84.1951 35.7263 83.8552 35.6921 83.6553 35.625C83.7097 35.1451 83.7372 34.7518 83.7379 34.4452C83.7386 34.1252 83.7325 33.8518 83.7196 33.6251C83.7068 33.3984 83.6673 33.1783 83.6011 32.9648C83.4688 32.4712 83.196 32.2238 82.7827 32.2228C82.3827 32.2218 81.9756 32.4141 81.5614 32.7998C81.1606 33.1721 80.7862 33.6779 80.4381 34.317C79.6483 35.7684 79.2516 37.3541 79.2479 39.0741C79.2461 39.9008 79.478 40.5547 79.9437 41.0358C80.4093 41.5036 81.1421 41.7388 82.1421 41.7412C82.8888 41.7431 83.616 41.4982 84.3237 41.0066C84.6309 40.7941 84.898 40.548 85.1253 40.2686ZM101.864 40.3099C102.21 40.5641 102.382 40.9645 102.381 41.5112C102.38 42.0445 102.259 42.5042 102.018 42.8903C101.791 43.2631 101.45 43.5956 100.996 43.8878C100.021 44.5121 98.6805 44.8221 96.9738 44.8179C95.2805 44.8137 93.9681 44.3704 93.0367 43.4881C92.1186 42.5925 91.6613 41.3581 91.6647 39.7847C91.6695 37.5581 92.2537 35.5995 93.4173 33.9091C94.3 32.6579 95.5286 31.7676 97.1031 31.2381C97.917 30.9735 98.724 30.8421 99.524 30.8441C100.324 30.8461 100.97 30.901 101.464 31.0089C101.957 31.1168 102.39 31.2779 102.763 31.4921C103.575 31.9608 103.98 32.5685 103.979 33.3151C103.977 33.9951 103.656 34.5877 103.015 35.0927C102.427 35.5446 101.893 35.77 101.413 35.7688C100.933 35.7676 100.593 35.7334 100.394 35.6663C100.448 35.1864 100.475 34.7931 100.476 34.4865C100.477 34.1665 100.471 33.8931 100.458 33.6664C100.445 33.4397 100.405 33.2196 100.339 33.0061C100.207 32.5125 99.9342 32.2651 99.5209 32.2641C99.1209 32.2631 98.7138 32.4555 98.2996 32.8411C97.8988 33.2134 97.5244 33.7192 97.1764 34.3583C96.3866 35.8097 95.9898 37.3954 95.9861 39.1154C95.9843 39.9421 96.2163 40.596 96.6819 41.0771C97.1475 41.545 97.8804 41.7801 98.8804 41.7826C99.627 41.7844 100.354 41.5395 101.062 41.0479C101.369 40.8354 101.636 40.5894 101.864 40.3099ZM111.495 42.9737C111.497 42.0404 111.687 40.6408 112.064 38.7751L109.104 38.7678L107.992 44.4651L103.812 44.4547L106.38 31.261L110.6 31.2715L109.428 37.1686L112.388 37.1759L113.5 31.2786L117.72 31.289C117.531 32.2752 117.316 33.3214 117.073 34.4274L116.386 37.6858C115.874 40.2178 115.617 42.0372 115.615 43.1439C115.614 43.5972 115.686 43.9507 115.832 44.2044C115.165 44.6561 114.438 44.881 113.651 44.879C112.878 44.8771 112.325 44.6891 111.992 44.3149C111.66 43.9408 111.494 43.4937 111.495 42.9737ZM117.952 44.4896L120.521 31.2959L124.921 31.3068L122.312 44.5004L117.952 44.4896ZM133.189 31.1872C136.456 31.1953 138.087 32.3526 138.082 34.6593C138.079 35.926 137.67 36.9383 136.855 37.6963C136.053 38.4543 134.953 38.8316 133.553 38.8281C132.899 38.8265 132.32 38.6384 131.814 38.2638C131.574 38.1033 131.375 37.9161 131.215 37.7024C132.188 37.7048 132.929 37.4133 133.437 36.8278C133.958 36.2291 134.22 35.3498 134.223 34.1898C134.225 33.0298 133.653 32.4484 132.506 32.4455L132.026 32.4444C131.946 32.4442 131.873 32.4506 131.806 32.4638L129.48 44.5181L125.14 44.5074L127.629 31.4135C129.056 31.2837 130.182 31.2131 131.009 31.2018C131.836 31.1905 132.562 31.1857 133.189 31.1872ZM145.973 35.3188C146.174 34.9193 146.274 34.5329 146.275 34.1595C146.276 33.7862 146.257 33.4995 146.217 33.2994C146.178 33.086 146.111 32.8991 146.018 32.7389C145.819 32.3917 145.519 32.2177 145.119 32.2167C144.626 32.2155 144.179 32.3944 143.778 32.7534C143.351 33.1256 143.136 33.6051 143.135 34.1918C143.134 34.5651 143.26 34.8988 143.513 35.1927C143.779 35.4734 144.112 35.7475 144.511 36.0152C144.911 36.2828 145.337 36.5506 145.789 36.8183C146.242 37.0861 146.668 37.3805 147.068 37.7015C147.986 38.4371 148.444 39.2982 148.442 40.2849C148.441 40.9516 148.259 41.5711 147.898 42.1436C147.55 42.7027 147.082 43.1882 146.495 43.6001C145.213 44.5036 143.725 44.9533 142.032 44.9491C140.659 44.9457 139.619 44.7231 138.913 44.2814C138.208 43.8263 137.856 43.2588 137.857 42.5788C137.86 41.3654 138.335 40.6066 139.282 40.3023C139.549 40.2096 139.882 40.1638 140.282 40.1648C140.696 40.1658 141.135 40.2535 141.602 40.428C141.387 40.9742 141.279 41.4939 141.278 41.9872C141.276 43.0539 141.655 43.5882 142.415 43.59C142.908 43.5912 143.355 43.4124 143.756 43.0533C144.17 42.6944 144.378 42.3149 144.378 41.9149C144.379 41.5015 144.247 41.1479 143.981 40.8539C143.728 40.5599 143.409 40.2991 143.022 40.0715C142.636 39.8306 142.217 39.5962 141.764 39.3684C141.324 39.1407 140.912 38.8663 140.526 38.5454C139.621 37.8098 139.169 36.8553 139.172 35.682C139.174 34.922 139.362 34.2491 139.736 33.6634C140.111 33.0643 140.599 32.5655 141.199 32.167C142.401 31.3566 143.735 30.9533 145.202 30.9569C146.682 30.9605 147.775 31.1832 148.481 31.625C149.2 32.0667 149.558 32.661 149.557 33.4076C149.555 34.061 149.301 34.5937 148.793 35.0058C148.353 35.3513 147.866 35.5235 147.332 35.5221C146.799 35.5208 146.346 35.453 145.973 35.3188Z" fill="#06312C"/>
</g>
<path d="M126.5 26.5C126.5 28.4731 125.005 30.0725 123.161 30.0725C121.317 30.0725 119.822 28.4731 119.822 26.5C119.822 24.5269 121.317 22.9275 123.161 22.9275C125.005 22.9275 126.5 24.5269 126.5 26.5Z" fill="#FBD40D"/>
<defs>
<filter id="filter0_i_20_35" x="48.099" y="5.01974" width="64.9572" height="23.896" filterUnits="userSpaceOnUse" color-interpolation-filters="sRGB">
<feFlood flood-opacity="0" result="BackgroundImageFix"/>
<feBlend mode="normal" in="SourceGraphic" in2="BackgroundImageFix" result="shape"/>
<feColorMatrix in="SourceAlpha" type="matrix" values="0 0 0 0 0 0 0 0 0 0 0 0 0 0 0 0 0 0 127 0" result="hardAlpha"/>
<feOffset dy="4"/>
<feGaussianBlur stdDeviation="2"/>
<feComposite in2="hardAlpha" operator="arithmetic" k2="-1" k3="1"/>
<feColorMatrix type="matrix" values="0 0 0 0 0 0 0 0 0 0 0 0 0 0 0 0 0 0 0.25 0"/>
<feBlend mode="normal" in2="shape" result="effect1_innerShadow_20_35"/>
</filter>
<filter id="filter1_i_20_35" x="0.65938" y="30.5801" width="148.903" height="18.3875" filterUnits="userSpaceOnUse" color-interpolation-filters="sRGB">
<feFlood flood-opacity="0" result="BackgroundImageFix"/>
<feBlend mode="normal" in="SourceGraphic" in2="BackgroundImageFix" result="shape"/>
<feColorMatrix in="SourceAlpha" type="matrix" values="0 0 0 0 0 0 0 0 0 0 0 0 0 0 0 0 0 0 127 0" result="hardAlpha"/>
<feOffset dy="4"/>
<feGaussianBlur stdDeviation="2"/>
<feComposite in2="hardAlpha" operator="arithmetic" k2="-1" k3="1"/>
<feColorMatrix type="matrix" values="0 0 0 0 0 0 0 0 0 0 0 0 0 0 0 0 0 0 0.25 0"/>
<feBlend mode="normal" in2="shape" result="effect1_innerShadow_20_35"/>
</filter>
</defs>
</svg>
