<svg width="165" height="46" viewBox="0 0 165 46" fill="none" xmlns="http://www.w3.org/2000/svg">
<path d="M138.678 20.5725C138.678 22.5456 137.183 24.145 135.339 24.145C133.495 24.145 132 22.5456 132 20.5725C132 18.5994 133.495 17 135.339 17C137.183 17 138.678 18.5994 138.678 20.5725Z" fill="#FBD40D"/>
<path opacity="0.8" d="M53.457 12.9957C53.8132 13.4075 53.9875 13.9449 53.9803 14.608C53.97 15.5262 53.5827 16.2279 52.8179 16.7132C52.0534 17.1816 51.0733 17.4098 49.8775 17.3976C49.1941 17.3907 48.3313 17.3139 47.2889 17.1672C45.242 16.8574 43.9055 16.6992 43.2792 16.6928C42.6528 16.6865 42.2159 16.699 41.9689 16.7305C41.7219 16.745 41.399 16.7673 41 16.7972L44.6882 0L56.9595 0.124733C56.948 1.16191 56.6546 1.94965 56.0791 2.48794C55.5226 3.02645 54.6939 3.29009 53.593 3.2789C52.4921 3.26772 51.3843 3.02689 50.2695 2.55643L49.3375 7.01073L54.4054 7.0622C54.3955 7.96336 54.1409 8.6665 53.6417 9.17151C53.1428 9.65959 52.4757 9.89934 51.6405 9.89088C50.8244 9.88265 50.1609 9.79083 49.6504 9.61565C49.1398 9.44036 48.8562 9.32697 48.7999 9.27538L47.7215 14.0853C48.1766 14.1409 48.8311 14.173 49.6853 14.1817C51.1468 14.1966 52.4041 13.8012 53.457 12.9957ZM56.3771 16.9535L59.9799 0.155433L66.1013 0.217666L70.4147 11.8417L72.906 0.286832L76.0661 0.344451L72.4066 17.1165L65.8866 17.0502L61.91 5.8631L59.509 16.9853L56.3771 16.9535ZM72.9691 20.6421C73.9383 20.55 74.7327 19.9458 75.3526 18.8299C75.9915 17.6971 76.6103 15.8243 77.2086 13.2117L80.1129 0.360079L86.2913 0.422881L83.387 13.2744C82.6478 16.5999 81.692 18.9114 80.5197 20.2088C79.9048 20.8827 79.2067 21.3518 78.4255 21.6159C77.6633 21.8802 76.8645 22.0081 76.0293 21.9996C75.1943 21.9911 74.5125 21.8482 73.9839 21.5708C73.4365 21.2931 73.0982 20.9836 72.9691 20.6421ZM87.24 11.0435C87.2755 7.82992 88.2346 5.22094 90.1171 3.21654C92.1154 1.04324 94.8324 -0.025946 98.268 0.00897332C100.754 0.0342469 102.618 0.59735 103.859 1.69826C105.1 2.78217 105.708 4.46332 105.682 6.74165C105.644 10.2103 104.626 12.9462 102.63 14.9494C100.653 16.9189 98.0227 17.887 94.7389 17.8536C92.1765 17.8275 90.2752 17.2385 89.0351 16.0866C87.8141 14.9179 87.2157 13.2368 87.24 11.0435ZM94.7864 5.84026C93.8985 8.89211 93.4411 11.6251 93.4143 14.0396C93.4079 14.6176 93.5071 15.0948 93.7117 15.471C93.9354 15.8473 94.3319 16.0384 94.9014 16.0442C95.4897 16.0502 95.9656 15.936 96.3288 15.7016C96.6924 15.4503 97.0195 15.0455 97.3105 14.4873C97.7762 13.5738 98.2285 12.15 98.6675 10.2158C99.1258 8.26502 99.3782 6.89016 99.425 6.09149C99.472 5.27566 99.4989 4.56175 99.5057 3.94965C99.5125 3.33756 99.4136 2.83491 99.2091 2.44172C99.0047 2.04853 98.6177 1.84904 98.0483 1.84326C97.4979 1.83766 97.0312 1.98596 96.6481 2.28816C95.9394 2.85911 95.3189 4.04313 94.7864 5.84026ZM110.757 10.0072C110.259 5.3938 109.046 2.58422 107.12 1.57837C107.524 1.14035 108.05 0.805602 108.698 0.574117C109.346 0.325635 110.059 0.205354 110.837 0.213261C111.615 0.221167 112.297 0.355639 112.883 0.616665C113.468 0.860683 113.948 1.24817 114.322 1.77911C115.033 2.78962 115.375 4.49356 115.348 6.89097L115.328 8.72725C116.499 5.74635 117.662 3.61557 118.815 2.33492C119.987 1.02047 121.296 0.370583 122.738 0.385237C123.307 0.391034 123.781 0.531882 124.157 0.807782C124.534 1.06669 124.815 1.39263 125 1.78563C123.532 2.34887 122.087 3.45648 120.664 5.10848C119.241 6.76043 118.062 8.74649 117.125 11.0667L115.372 17.5532L109.023 17.4886L110.757 10.0072Z" fill="#06312C"/>
<path opacity="0.8" d="M2.6333e-05 37.7624C0.00604734 34.0746 0.734999 31.0722 2.18687 28.755C3.72771 26.2429 5.8354 24.9913 8.50992 25C10.4456 25.0063 11.9001 25.6355 12.8732 26.8874C13.8465 28.1197 14.331 30.0434 14.3267 32.6579C14.3203 36.6384 13.5467 39.7871 12.0062 42.1041C10.4805 44.382 8.43947 45.5167 5.88316 45.5084C3.88836 45.502 2.40441 44.8434 1.4313 43.5329C0.473014 42.203 -0.00408409 40.2795 2.6333e-05 37.7624ZM5.83918 31.7229C5.16851 35.2329 4.83091 38.3734 4.82639 41.1441C4.8253 41.8074 4.90568 42.354 5.06753 42.7838C5.24414 43.2138 5.5541 43.4293 5.99738 43.4308C6.45545 43.4323 6.82508 43.2969 7.10628 43.0247C7.38751 42.7329 7.63947 42.2655 7.86216 41.6222C8.21852 40.5697 8.56105 38.9318 8.88977 36.7085C9.23328 34.4658 9.42056 32.8859 9.45161 31.9689C9.4827 31.0324 9.49881 30.213 9.49996 29.5106C9.50111 28.8081 9.42077 28.2323 9.25897 27.7829C9.09716 27.3336 8.79461 27.1082 8.35132 27.1068C7.92281 27.1055 7.5605 27.2797 7.2644 27.6301C6.7166 28.2917 6.24152 29.656 5.83918 31.7229ZM15.1923 44.9535L17.9278 25.7331C19.3911 25.5232 21.1865 25.4218 23.3143 25.4287C25.4569 25.4357 27.0226 25.8506 28.0112 26.6733C28.9999 27.496 29.4928 28.7367 29.4901 30.3952C29.4875 32.0342 29.1602 33.3697 28.5084 34.4017C27.8712 35.4339 26.9984 36.1139 25.8896 36.442C26.1382 38.0623 26.5495 39.527 27.1236 40.8362C27.6536 42.0672 28.2285 42.8788 28.8485 43.2711C28.6255 44.0899 28.2847 44.6741 27.826 45.0239C27.3822 45.3932 26.8352 45.5767 26.185 45.5747C25.5496 45.5726 24.9811 45.3268 24.4795 44.8374C23.9779 44.3285 23.5284 43.6147 23.131 42.6965C22.292 40.7034 21.8307 38.136 21.7472 34.9944L21.9023 34.9948C22.9958 34.9594 23.8166 34.5718 24.3645 33.8322C24.9125 33.0729 25.1878 31.9031 25.1903 30.3226C25.1935 28.352 24.5672 27.3255 23.3113 27.2433L22.8237 27.2417C22.6907 27.2413 22.5873 27.2508 22.5134 27.2701L19.9355 44.9688L15.1923 44.9535ZM43.9485 35.096C42.8795 38.1754 42.3421 41.5004 42.3364 45.0711C41.9368 45.4406 41.4415 45.6244 40.8505 45.6224C40.2742 45.6206 39.8016 45.4336 39.4328 45.0618C39.064 44.7094 38.8429 44.3476 38.7697 43.9767C38.3994 44.4827 37.9111 44.8812 37.3048 45.1718C36.7133 45.4626 36.0998 45.607 35.4645 45.6048C34.8291 45.6028 34.2309 45.4643 33.6698 45.1892C33.1236 44.9144 32.6366 44.4738 32.2091 43.8675C31.2656 42.5375 30.7958 40.614 30.8 38.097C30.8064 34.1946 31.602 31.0752 33.1869 28.7389C34.8163 26.3247 37.0716 25.1224 39.953 25.1318C41.9477 25.1382 43.2987 25.8256 44.0057 27.1937C44.2267 27.6238 44.3367 28.1022 44.3359 28.629C44.3351 29.1362 44.2456 29.614 44.0675 30.0623C43.9043 30.4909 43.6894 30.8805 43.4229 31.2308C42.7862 32.0093 42.0763 32.3971 41.2932 32.3946C40.9829 32.3936 40.68 32.3244 40.3848 32.1868C40.4449 31.6016 40.4754 30.9675 40.4766 30.2847C40.4777 29.6017 40.4563 29.1042 40.4125 28.7917C40.3835 28.4794 40.3247 28.1964 40.2365 27.9424C40.0453 27.415 39.7354 27.1505 39.3069 27.1492C38.8931 27.1477 38.4494 27.4488 37.9755 28.0521C37.5166 28.636 37.1016 29.4151 36.7305 30.3895C35.9143 32.5722 35.5039 34.9806 35.4997 37.6148C35.4977 38.8246 35.6733 39.8592 36.0266 40.719C36.4092 41.6567 36.9404 42.1268 37.6201 42.129C37.8565 42.1298 38.0784 42.0524 38.2855 41.897C38.5073 41.7416 38.6627 41.6056 38.7516 41.4887L39.4704 35.6081L43.9485 35.096ZM54.7531 45.6678C52.8618 45.6616 51.8304 43.8827 51.6588 40.3309L47.8465 40.3184C47.5495 41.2151 47.2969 42.0533 47.0888 42.833L46.5089 45.0555L43.4058 45.0454L50.4192 25.7512L55.1846 25.7667L56.0923 39.9941C56.2367 42.0433 56.6039 43.3714 57.194 43.9781C56.7636 45.1085 55.95 45.6717 54.7531 45.6678ZM48.537 38.184L51.5957 38.1941L51.3421 30.6713L51.3434 29.8811L49.7622 34.4711L48.537 38.184ZM58.3319 45.0941L61.0232 25.7857L65.7886 25.8013L69.2246 39.1003L71.0858 25.8185L73.5461 25.8558L70.8105 45.1348L65.7349 45.1183L62.5641 32.3177L60.77 45.102L58.3319 45.0941ZM73.8277 45.1446L76.6741 25.8368L81.5503 25.8526L78.6596 45.1603L73.8277 45.1446ZM93.5949 39.1505C93.9785 39.5225 94.1697 40.1084 94.1683 40.9085C94.1671 41.6889 94.033 42.3616 93.7662 42.9267C93.514 43.4722 93.1365 43.9588 92.6333 44.3864C91.5531 45.2999 90.0673 45.7537 88.176 45.7474C86.2995 45.7414 84.845 45.0926 83.8127 43.8015C82.7954 42.4909 82.2885 40.6844 82.2922 38.3819C82.2976 35.1235 82.9451 32.2572 84.2346 29.7833C85.2129 27.9525 86.5744 26.6496 88.3193 25.8747C89.2213 25.4875 90.1156 25.2952 91.0021 25.2981C91.8887 25.3011 92.6053 25.3814 93.1518 25.5393C93.6982 25.6972 94.1781 25.9328 94.5912 26.2464C95.4916 26.9323 95.9407 27.8215 95.939 28.9142C95.9373 29.9093 95.5813 30.7764 94.8709 31.5156C94.2195 32.1769 93.628 32.5067 93.096 32.505C92.5641 32.5032 92.1874 32.4532 91.9658 32.355C92.0261 31.6527 92.0566 31.0771 92.0574 30.6285C92.0582 30.1602 92.0514 29.7601 92.0371 29.4283C92.0229 29.0966 91.9791 28.7745 91.9058 28.462C91.7592 27.7397 91.4568 27.3776 90.9988 27.3762C90.5555 27.3747 90.1044 27.6561 89.6453 28.2206C89.2012 28.7654 88.7862 29.5056 88.4005 30.4409C87.5252 32.5648 87.0855 34.8854 87.0814 37.4024C87.0795 38.6122 87.3365 39.5692 87.8526 40.2732C88.3685 40.9578 89.1806 41.302 90.2889 41.3055C91.1164 41.3083 91.9223 40.9499 92.7066 40.2305C93.047 39.9195 93.343 39.5594 93.5949 39.1505ZM112.145 39.2109C112.529 39.5829 112.719 40.1689 112.718 40.9689C112.717 41.7493 112.583 42.4221 112.316 42.9871C112.064 43.5327 111.686 44.0192 111.183 44.4468C110.103 45.3604 108.617 45.8141 106.726 45.808C104.849 45.8018 103.395 45.1531 102.363 43.8619C101.345 42.5513 100.838 40.7449 100.842 38.4423C100.847 35.1839 101.495 32.3177 102.784 29.8439C103.763 28.0129 105.124 26.71 106.869 25.9352C107.771 25.5479 108.665 25.3557 109.552 25.3586C110.439 25.3615 111.154 25.4418 111.702 25.5998C112.248 25.7577 112.728 25.9934 113.142 26.3069C114.041 26.9928 114.49 27.8821 114.489 28.9747C114.487 29.9698 114.131 30.837 113.421 31.576C112.769 32.2373 112.177 32.5672 111.645 32.5654C111.113 32.5637 110.737 32.5136 110.516 32.4154C110.576 31.7131 110.606 31.1376 110.607 30.6889C110.608 30.2206 110.601 29.8205 110.587 29.4888C110.573 29.157 110.528 28.8349 110.455 28.5225C110.309 27.8001 110.007 27.4381 109.549 27.4366C109.105 27.4352 108.654 27.7167 108.195 28.281C107.751 28.8258 107.336 29.566 106.95 30.5013C106.075 32.6253 105.635 34.9458 105.631 37.4629C105.629 38.6727 105.886 39.6296 106.402 40.3336C106.918 41.0184 107.731 41.3624 108.839 41.3661C109.666 41.3687 110.472 41.0103 111.256 40.2909C111.597 39.9799 111.893 39.6199 112.145 39.2109ZM122.819 43.1091C122.821 41.7433 123.031 39.6952 123.449 36.9649L120.169 36.9542L118.936 45.2917L114.304 45.2764L117.15 25.9687L121.827 25.984L120.528 34.6139L123.808 34.6246L125.041 25.9944L129.717 26.0097C129.508 27.4529 129.27 28.9839 129 30.6024L128.239 35.3708C127.672 39.0761 127.387 41.7387 127.384 43.3582C127.383 44.0216 127.463 44.5389 127.625 44.9102C126.886 45.5712 126.08 45.9003 125.208 45.8974C124.351 45.8946 123.738 45.6195 123.369 45.0719C123.001 44.5244 122.817 43.8701 122.819 43.1091ZM129.974 45.3275L132.821 26.0197L137.698 26.0357L134.806 45.3433L129.974 45.3275ZM146.86 25.8607C150.481 25.8725 152.289 27.5661 152.283 30.9418C152.28 32.7955 151.826 34.2769 150.923 35.3861C150.034 36.4954 148.815 37.0476 147.264 37.0424C146.539 37.0401 145.897 36.7648 145.337 36.2166C145.071 35.9818 144.85 35.7078 144.673 35.3951C145.751 35.3986 146.572 34.972 147.135 34.1152C147.713 33.239 148.003 31.9523 148.006 30.2547C148.009 28.5572 147.375 27.7063 146.104 27.7021L145.572 27.7005C145.483 27.7002 145.402 27.7095 145.328 27.7289L142.75 45.3692L137.94 45.3536L140.699 26.1918C142.28 26.0019 143.528 25.8986 144.445 25.882C145.361 25.8655 146.166 25.8585 146.86 25.8607ZM161.028 31.9069C161.251 31.3223 161.362 30.7568 161.363 30.2104C161.364 29.6641 161.343 29.2445 161.298 28.9517C161.255 28.6394 161.181 28.3659 161.078 28.1314C160.857 27.6234 160.525 27.3687 160.082 27.3673C159.535 27.3655 159.04 27.6273 158.596 28.1527C158.122 28.6973 157.884 29.3991 157.883 30.2576C157.882 30.8039 158.021 31.2923 158.302 31.7224C158.597 32.1331 158.966 32.5343 159.408 32.926C159.851 33.3176 160.323 33.7095 160.824 34.1013C161.326 34.4932 161.798 34.924 162.242 35.3938C163.259 36.4702 163.767 37.7304 163.764 39.1743C163.763 40.15 163.561 41.0566 163.161 41.8944C162.776 42.7126 162.257 43.423 161.607 44.0258C160.186 45.348 158.537 46.0061 156.661 46C155.139 45.995 153.986 45.6692 153.204 45.0228C152.423 44.3568 152.033 43.5264 152.034 42.5312C152.037 40.7555 152.563 39.6451 153.613 39.1998C153.909 39.0641 154.278 38.9971 154.721 38.9986C155.18 39 155.666 39.1284 156.184 39.3837C155.946 40.1831 155.826 40.9436 155.825 41.6655C155.823 43.2265 156.243 44.0084 157.085 44.011C157.631 44.0128 158.127 43.7511 158.571 43.2256C159.03 42.7004 159.26 42.145 159.26 41.5597C159.262 40.9547 159.115 40.4373 158.821 40.007C158.54 39.5768 158.187 39.1951 157.758 38.862C157.33 38.5095 156.866 38.1665 156.364 37.8331C155.876 37.4999 155.419 37.0983 154.992 36.6287C153.989 35.5522 153.488 34.1554 153.491 32.4384C153.493 31.3262 153.702 30.3415 154.116 29.4844C154.532 28.6076 155.072 27.8777 155.737 27.2945C157.07 26.1086 158.548 25.5184 160.174 25.5237C161.814 25.5289 163.025 25.8548 163.808 26.5014C164.604 27.1477 165.001 28.0174 165 29.11C164.998 30.0662 164.716 30.8458 164.153 31.4488C163.666 31.9545 163.126 32.2065 162.534 32.2044C161.943 32.2025 161.441 32.1033 161.028 31.9069Z" fill="#06312C"/>
</svg>